<?xml version="1.0" encoding="UTF-8" standalone="no"?>
<svg width="57px" height="55px" viewBox="0 0 57 55" version="1.1" xmlns="http://www.w3.org/2000/svg" xmlns:xlink="http://www.w3.org/1999/xlink">
    <!-- Generator: Sketch 50.2 (55047) - http://www.bohemiancoding.com/sketch -->
    <title>Slice 1</title>
    <desc>Created with Sketch.</desc>
    <defs></defs>
    <g id="Page-1" stroke="none" stroke-width="1" fill="none" fill-rule="evenodd">
        <g id="volume-level" fill="#930222" fill-rule="nonzero">
            <path d="M39.777,14.388 L5,14.388 C2.239,14.388 0,16.626 0,19.388 C0,22.15 2.239,24.388 5,24.388 L39.775,24.388 C42.537,24.388 44.775,22.15 44.775,19.388 C44.775,16.626 42.538,14.388 39.777,14.388 Z" id="Shape"></path>
            <path d="M50.6373869,0 L6.36515913,0 C2.85031826,0 0,2.238 0,5 C0,7.762 2.85031826,10 6.36515913,10 L50.6348409,10 C54.1509548,10 57,7.762 57,5 C57,2.238 54.1522278,0 50.6373869,0 Z" id="Shape"></path>
            <path d="M27.777,29.388 L5,29.388 C2.239,29.388 0,31.626 0,34.388 C0,37.15 2.239,39.388 5,39.388 L27.775,39.388 C30.537,39.388 32.775,37.15 32.775,34.388 C32.775,31.625 30.538,29.388 27.777,29.388 Z" id="Shape"></path>
            <path d="M14.777,44.388 L5,44.388 C2.239,44.388 0,46.626 0,49.388 C0,52.15 2.239,54.388 5,54.388 L14.776,54.388 C17.537,54.388 19.776,52.15 19.776,49.388 C19.776,46.626 17.538,44.388 14.777,44.388 Z" id="Shape"></path>
        </g>
    </g>
</svg>